<svg width="900" height="862" viewBox="0 0 900 862" fill="none" xmlns="http://www.w3.org/2000/svg">
<path d="M824.234 861.336C820.962 861.336 817.76 860.57 814.906 859.039L374.805 632.445C374.735 632.445 374.596 632.375 374.387 632.375C374.248 632.375 374.178 632.375 374.178 632.375L292.034 673.239C287.787 675.258 283.123 676.371 278.528 676.371C270.314 676.371 262.656 673.169 256.948 667.321C241.076 651.241 225.691 639.197 202.579 633.211L156.077 621.098C145.565 618.383 136.933 611.004 132.478 600.91L119.251 570.836C118.694 569.514 117.441 568.33 116.119 567.843L82.4253 555.452L78.1788 557.122C75.5335 558.166 72.6793 558.723 69.7555 558.723C64.9521 558.723 60.288 557.192 56.3896 554.407L51.1685 550.648C45.8082 546.68 42.5364 540.763 41.9795 534.289L39.7518 532.688C33.5561 528.093 30.0754 520.923 30.4235 513.265L31.05 497.95C31.1196 496.976 30.8412 495.931 30.2843 494.957L3.55243 450.613C-1.87748 441.423 -1.0421 429.728 5.78008 421.583L9.05195 417.615C12.115 413.996 16.1526 411.211 20.6775 409.679L29.8666 406.756L31.3285 398.472L24.6455 380.233C21.861 372.575 22.2786 363.943 25.8986 356.494L34.9484 337.977C34.9484 337.977 34.9484 337.907 34.8788 337.698L28.5439 318.624C26.734 313.125 26.5251 307.277 27.9174 301.708L32.9296 281.659C33.765 278.248 33.9042 274.698 33.3473 271.078L28.1262 237.941L14.4122 216.57C10.9315 211.07 6.61545 204.248 8.21658 195.407C10.5138 182.598 17.893 176.402 23.6709 173.479C29.9362 170.276 36.6888 169.719 41.6314 169.371H41.701C42.7452 169.302 45.0425 169.093 46.2259 168.884C50.7508 164.707 54.9973 159.765 57.9211 155.1C59.3134 152.873 59.8007 150.227 59.383 147.512L55.0669 123.426C53.8139 116.743 55.4846 109.642 59.5222 104.073L66.9013 94.0488C71.7047 87.5746 79.2927 83.6762 87.2983 83.6762C88.064 83.6762 88.7602 83.7459 89.3867 83.8155L94.6774 78.7336L95.0951 75.8098C96.2089 68.7092 100.873 62.8616 107.556 60.1467L130.668 51.3056C129.136 47.8249 128.579 43.9265 129.136 40.0978L132.199 19.4224C133.94 8.21447 143.407 0 154.824 0C159.767 0 164.431 1.53151 168.329 4.52492L189.144 19.7704C190.118 20.4666 191.232 20.8843 192.346 20.8843L218.939 21.9285C219.148 21.9285 219.426 21.9285 219.704 21.9285C221.862 21.9285 223.881 21.65 225.9 21.0235L233.21 18.8654C235.368 18.2389 237.595 17.8908 239.753 17.8908C243.861 17.8908 247.829 19.0047 251.309 21.0931L258.549 25.4092L261.543 24.9915C262.587 24.8523 263.631 24.7826 264.675 24.7826C270.244 24.7826 275.605 26.8015 279.712 30.4214L280.06 30.6999L294.888 34.5286C301.362 36.1298 306.722 40.5154 309.576 46.4327L317.234 47.8946L331.853 50.6791C341.181 52.5587 349.396 57.7798 354.895 65.4373C358.654 70.5888 361.021 76.6452 361.787 82.9801C364.711 107.206 367.356 113.401 388.588 123.426C396.594 127.255 405.992 127.533 416.852 127.951H417.339C429.313 128.369 442.957 128.856 456.741 134.425C482.289 144.797 499.762 154.543 515.147 167.144C527.19 176.959 536.31 182.668 543.062 184.617C544.176 184.895 545.429 185.104 546.613 185.104C558.099 185.104 573.414 172.713 578.914 162.062C581.35 157.328 584.622 150.575 584.692 146.816C584.692 145.146 584.065 142.988 580.793 137.558C574.737 127.603 571.952 116.534 572.788 105.465C574.528 83.8155 583.995 66.0639 600.912 52.6283C616.227 40.5155 635.788 33.4148 651.173 28.6114C652.705 28.1241 654.306 27.1495 655.907 25.6876C662.103 20.0489 669.203 17.1251 677 17.1251C681.943 17.1251 686.259 18.3085 689.461 19.1439H689.531C691.132 19.5616 693.29 20.1881 694.334 20.1881C694.404 20.1881 694.473 20.1881 694.543 20.1881H694.752C697.745 19.2831 700.878 18.7958 704.08 18.7958C707.769 18.7958 711.529 19.4224 715.079 20.6754L747.658 32.0225C759.423 36.1298 767.847 46.363 769.587 58.8936C769.726 60.0074 769.935 60.7732 770.074 61.1213C772.163 61.8174 777.662 62.1655 781.839 62.3743L784.067 62.5135C789.009 62.792 793.952 64.1147 798.407 66.4119L811.216 73.0253C811.982 73.443 812.887 73.6518 813.792 73.6518C814.14 73.6518 814.488 73.5822 814.836 73.5126L815.045 73.443C816.576 73.1645 818.456 72.6772 820.405 72.1203L821.101 71.9114C826.462 70.4496 833.701 68.5004 840.733 68.5004C850.827 68.5004 857.022 72.6076 860.433 76.0883L861.965 77.6198C869.274 84.9293 882.779 98.4345 875.192 116.673L875.122 116.743C872.546 122.869 868.509 127.812 864.889 131.849C863.705 133.172 862.522 134.564 865.237 141.178C871.084 154.961 873.73 162.271 870.597 176.263C868.3 186.427 864.262 193.388 860.642 198.818C858.902 201.463 858.693 202.438 858.693 202.508C858.693 203.204 859.668 205.78 860.364 207.659C864.749 219.354 868.439 231.328 872.059 242.884L872.546 244.485C872.825 245.46 873.173 246.434 873.451 247.409C873.799 248.383 874.078 249.428 874.426 250.402C877.837 261.332 878.255 271.635 878.603 281.589C878.603 282.146 878.672 282.703 878.672 283.33C878.672 283.678 878.672 284.026 878.742 284.304V284.513L899.974 807.385C900.601 821.238 889.741 833.073 875.818 833.699L844.004 835.022L844.144 840.591C844.283 846.091 842.194 851.381 838.296 855.28C834.746 859.178 829.525 861.336 824.234 861.336Z" fill="#FCF4ED"/>
<path d="M865.029 285.349C864.959 284.374 864.959 283.33 864.889 282.355C864.541 272.818 864.193 263.768 861.339 254.579C860.713 252.56 860.086 250.611 859.459 248.592C855.77 236.688 852.011 224.436 847.555 212.602C844.632 204.805 843.03 200.489 849.226 191.161C852.289 186.566 855.352 181.275 857.162 173.27C859.39 163.454 858.067 159.625 852.568 146.607C848.321 136.444 848.948 129.065 854.656 122.66C857.51 119.458 860.643 115.629 862.453 111.383C866.49 101.706 858.763 94.1184 852.011 87.3658C851.593 86.9481 851.106 86.4608 850.688 86.0431C848.391 83.7459 845.119 82.5624 840.803 82.5624C835.791 82.5624 830.152 84.0243 824.722 85.4862C822.285 86.1128 819.919 86.7393 817.76 87.157C813.444 88.0619 808.78 87.4354 804.812 85.347L792.073 78.8033C789.428 77.411 786.365 76.5756 783.371 76.4364L781.143 76.2971C766.594 75.4618 757.892 74.9745 755.874 60.8428C754.829 53.5333 749.956 47.5465 743.134 45.1796L710.485 33.8325C706.517 32.4402 702.479 32.3706 698.929 33.4844C697.467 33.9717 696.005 34.1806 694.404 34.1806C691.55 34.1806 688.696 33.4148 685.911 32.6491C683.057 31.8833 680.133 31.1176 677.07 31.1176C672.754 31.1176 668.995 32.6491 665.305 36.0602C662.173 38.8447 658.901 40.7939 655.49 41.9077C621.657 52.4891 589.844 67.5954 586.711 106.579C586.084 114.585 588.103 122.799 592.698 130.318C600.495 143.127 601.26 149.253 591.306 168.466C583.648 183.225 563.878 199.027 546.613 199.027C544.107 199.027 541.601 198.679 539.304 198.052C530.463 195.546 520.021 189.142 506.307 177.934C492.175 166.378 475.746 157.189 451.52 147.373C439.964 142.709 428.13 142.291 416.713 141.874C404.67 141.456 393.323 141.108 382.602 136.026C356.567 123.704 351.345 112.914 347.934 84.6508C347.447 80.6132 345.985 76.8541 343.618 73.5822C340.138 68.7788 334.917 65.507 329.069 64.3235L314.589 61.5389L302.824 59.3113C300.318 58.824 298.299 56.8748 297.673 54.3687C296.907 51.236 294.54 48.7996 291.408 48.0338L275.744 43.9962C274.143 43.5785 272.681 42.8127 271.428 41.6989L270.454 40.8635C268.574 39.1928 265.929 38.427 263.423 38.7751L257.923 39.5409C256.392 39.7497 254.86 39.4713 253.538 38.6359L244.14 33.0667C242.051 31.8137 239.476 31.5352 237.109 32.2314L229.869 34.3894C226.179 35.5032 222.281 35.9905 218.382 35.8513L191.859 34.8071C187.961 34.6679 184.202 33.3452 181 31.0479L159.976 15.6632C158.445 14.4798 156.635 13.9229 154.825 13.9229C150.439 13.9229 146.749 17.0555 146.123 21.4412L143.06 42.1862C142.712 44.3442 143.617 46.5719 145.357 47.9642L147.863 49.983C149.395 51.236 149.882 53.3941 148.907 55.1344L146.958 58.8936C146.471 59.7986 145.705 60.4251 144.8 60.8428L112.847 73.0949C110.759 73.9303 109.297 75.7402 108.949 77.9679L108.183 83.2586C107.974 84.7205 107.278 86.1127 106.164 87.0873L96.6272 96.2068C95.1653 97.5991 93.0769 98.2952 91.0581 98.0168L88.9 97.7383C88.4127 97.6687 87.8558 97.5991 87.3685 97.5991C83.7486 97.5991 80.3375 99.3394 78.1795 102.263L70.87 112.218C69.06 114.724 68.2943 117.926 68.8512 120.989L73.1672 145.076C74.2811 151.202 73.0976 157.398 69.8258 162.549C65.9274 168.745 60.3582 175.149 54.5803 180.231C51.9349 182.528 47.4796 182.946 42.8155 183.294C34.1833 183.99 24.3677 184.826 22.0008 197.983C21.4439 201.046 22.9058 203.9 26.2473 209.191L39.8917 230.423C41.0055 232.094 41.7016 233.973 41.9801 235.992L47.2012 268.989C48.0365 274.349 47.8277 279.779 46.505 285.07L41.4928 305.119C40.727 308.182 40.8663 311.384 41.8409 314.378L48.1758 333.382C49.3592 337.002 49.1503 340.901 47.41 344.312L38.4994 362.551C36.5502 366.588 36.2717 371.322 37.8032 375.499L44.6254 394.225C45.3216 396.174 45.5304 398.332 45.1823 400.421L43.3724 410.445C42.6066 414.831 39.474 418.312 35.2275 419.704L25.0638 422.906C22.9754 423.602 21.0958 424.855 19.7036 426.526L16.5013 430.424C13.4383 434.114 13.0902 439.405 15.5267 443.512L42.2585 487.856C44.2774 491.198 45.252 494.957 45.0431 498.786L44.4166 513.961C44.2774 516.885 45.6696 519.739 48.0365 521.48L53.188 525.239C55.0676 526.562 56.0422 528.789 55.9725 531.087L55.9029 531.852C55.6941 534.846 57.0864 537.7 59.5229 539.51L64.6047 543.199C66.1362 544.313 67.8766 544.87 69.7561 544.87C70.87 544.87 71.9838 544.661 73.028 544.244L79.8502 541.529C81.3817 540.902 83.1221 540.902 84.6536 541.459L120.853 554.755C125.865 556.565 129.972 560.464 132.061 565.337L145.148 595.271C147.863 601.397 153.084 605.922 159.558 607.593L206.061 619.705C233.837 626.945 251.728 642.191 266.903 657.575C269.967 660.708 274.143 662.448 278.529 662.448C281.105 662.448 283.681 661.822 285.978 660.708L367.983 619.914C372.021 617.895 377.033 617.965 381.071 619.984L821.38 846.717C822.285 847.205 823.26 847.413 824.235 847.413C825.905 847.413 827.507 846.717 828.69 845.534C829.873 844.35 830.5 842.749 830.43 841.078L830.221 830.845C830.152 825.763 834.05 821.586 839.132 821.378L875.401 819.846C881.666 819.568 886.539 814.277 886.261 808.012L865.029 285.349Z" fill="black"/>
<path d="M588.73 106.718C590.609 83.5366 603.14 69.0569 620.195 58.8932C626.461 55.134 634.049 59.7982 634.397 67.1077L636.276 101.149C636.555 106.022 639.896 110.199 644.56 111.452L650.965 113.262C654.654 114.306 657.369 117.508 657.717 121.337L659.597 141.804C660.084 147.094 656.464 151.967 651.243 153.012L639.478 155.378C633.213 156.631 626.53 155.796 620.752 153.081L605.507 145.841C602.374 144.379 600.286 141.386 599.033 138.114C597.988 135.33 596.387 132.475 594.438 129.273C590.052 122.033 588.103 114.306 588.73 106.718Z" fill="#67A0E3"/>
<path d="M264.188 435.784C264.258 433.278 265.302 430.911 267.112 429.171L272.473 424.159C275.675 421.165 276.858 416.571 275.536 412.394L273.029 404.597C270.663 397.149 277.067 389.839 284.794 391.301C288.693 391.997 292.591 390.744 295.306 387.82L314.868 366.449C319.253 361.645 325.17 358.791 331.645 358.443L358.168 356.772C359.073 356.703 359.769 357.329 359.908 358.234C361.231 368.885 363.737 379.327 367.357 389.352C369.654 395.756 365.964 402.927 359.351 404.18L322.804 411.28C316.747 412.464 311.178 415.318 306.723 419.634L287.648 437.942C286.326 439.196 284.655 440.101 282.845 440.379L271.916 442.259C267.808 443.094 264.119 439.892 264.188 435.784Z" fill="#F0E959"/>
<path d="M230.566 36.4078L237.806 34.2498C239.616 33.6928 241.565 33.9713 243.166 34.8763L252.564 40.4454C254.304 41.4896 256.323 41.8377 258.272 41.5593L263.772 40.7935C265.721 40.515 267.67 41.1416 269.132 42.3946C270.524 43.6477 270.873 45.7361 269.968 47.3372L267.531 51.6533C266.487 53.5329 264.607 54.7859 262.449 55.0644L249.362 56.5959C247.134 56.8744 245.115 57.9882 243.653 59.7286L239.964 64.1839C238.363 66.0634 235.369 65.3673 234.812 62.9308C234.325 60.7031 232.445 58.9628 230.148 58.6843C229.174 58.5451 228.269 57.9882 227.781 57.1528C227.224 56.3175 227.085 55.3429 227.294 54.3683L229.591 45.4576C230.218 43.0212 229.313 40.4454 227.224 39.1924C226.389 38.6355 226.737 37.3128 227.712 37.1736C228.686 36.9647 229.591 36.6863 230.566 36.4078Z" fill="#00F4A3"/>
<path d="M750.234 153.847L755.943 327.953C756.082 331.642 759.145 334.566 762.835 334.427L854.308 331.712C860.086 331.572 864.68 326.63 864.402 320.852L862.94 285.279C862.87 284.304 862.87 283.26 862.801 282.286C862.453 272.888 862.105 264.047 859.32 255.066C858.693 253.048 858.067 251.098 857.44 249.08C853.82 237.176 849.992 224.924 845.606 213.159C842.404 204.527 841.011 199.584 847.486 189.838C850.409 185.452 853.403 180.37 855.143 172.643C857.162 163.802 856.327 160.67 850.688 147.234C847.555 139.855 845.049 130.179 853.124 121.129C855.909 118.066 858.902 114.376 860.573 110.408C864.054 102.055 857.162 95.3019 850.549 88.6886C850.131 88.2709 849.644 87.7836 849.226 87.3659C847.346 85.4167 844.562 84.5117 840.803 84.5117C836.069 84.5117 830.5 85.9736 825.209 87.3659C822.772 88.0621 820.406 88.619 818.178 89.1063C813.375 90.1505 808.223 89.3847 803.837 87.1571L791.098 80.6133C788.662 79.3603 785.947 78.5945 783.232 78.4553L781.074 78.2465C779.472 78.1768 777.941 78.0376 776.479 77.968C769.726 77.4807 762.347 81.936 761.234 88.619L750.374 151.759C750.235 152.455 750.165 153.151 750.234 153.847ZM697.676 49.4958C700.321 58.128 701.157 67.0386 700.321 76.0188L694.891 134.077C694.404 139.228 698.999 143.405 704.08 142.361C710.206 141.108 716.611 141.456 722.598 143.336L736.799 147.791C742.855 149.671 749.19 145.842 750.234 139.577L760.189 81.6576C760.885 77.4111 758.588 73.3039 756.43 69.5447C755.177 67.3866 754.272 64.6021 753.785 61.0518C752.88 54.508 748.494 49.1477 742.438 47.0593L709.789 35.7122C706.308 34.4591 702.688 34.3199 699.625 35.3641C697.954 35.921 696.214 36.1995 694.404 36.1299C694.056 36.1299 693.777 36.478 693.847 36.8956L697.676 49.4958ZM665.653 48.73C667.046 51.7235 666.767 55.1346 664.818 57.7799L662.59 60.7733C661.198 62.6529 660.92 65.2286 661.825 67.3866L670.178 86.9482C670.805 88.2709 671.779 89.4543 673.032 90.1505L675.747 91.682C678.532 93.2831 680.203 96.3461 680.133 99.5484L679.228 137.001C679.158 137.975 679.507 138.95 680.133 139.716L683.544 143.823C684.658 145.215 686.468 145.842 688.208 145.494C690.297 145.076 691.898 143.336 692.107 141.178L698.233 75.81C699.068 67.1082 698.233 58.476 695.657 50.1223L693.151 41.9079C692.037 38.2879 688.904 35.7122 685.285 34.668C682.5 33.9022 679.785 33.2061 677 33.2061C673.241 33.2061 669.969 34.5984 666.628 37.5918C664.261 39.889 663.078 43.3698 664.47 46.2936L665.653 48.73ZM638.365 101.01C638.573 104.978 641.288 108.389 645.117 109.434L651.522 111.244C656.047 112.497 659.388 116.465 659.806 121.129L661.755 142.361C662.173 146.816 666.349 149.949 670.735 149.114L676.095 148.069C679.228 147.443 680.62 143.684 678.532 141.178C677.627 139.994 677.14 138.532 677.14 137.07L677.975 99.5484C678.045 97.1119 676.792 94.8146 674.634 93.5616L671.919 92.0301C670.317 91.0555 668.995 89.5936 668.229 87.8532L659.945 68.222C658.692 65.3678 659.11 62.0264 660.92 59.5202L663.147 56.5268C664.609 54.508 664.818 51.8627 663.774 49.635L662.103 46.1543C661.059 43.9963 658.344 43.1609 656.047 43.8571C651.452 45.319 646.927 46.8505 642.541 48.4516C638.365 49.9831 635.789 54.0903 635.998 58.5456L638.365 101.01ZM551.416 400.282L856.675 393.738C862.522 393.599 867.117 388.726 866.908 382.878L865.307 344.033C865.098 338.325 860.295 333.87 854.586 334.009L762.765 336.724H762.487C757.822 336.724 753.854 332.965 753.715 328.231L748.216 161.087C748.076 156.632 745.153 152.803 740.906 151.481L721.902 145.494C716.263 143.684 710.206 143.336 704.428 144.519L639.826 157.467C637.738 157.885 635.65 158.094 633.561 158.094C628.827 158.094 624.094 156.98 619.778 154.961L616.158 153.221C609.057 149.879 599.659 155.17 596.526 162.34C595.552 164.498 594.438 166.865 593.115 169.441C585.249 184.687 565.2 201.115 546.543 201.115C543.759 201.115 541.114 200.767 538.677 200.071C534.152 198.818 529.14 202.229 529.697 206.893L532.621 232.094C533.247 237.733 531.368 243.371 527.4 247.548L515.635 259.8C512.293 263.351 510.623 268.084 510.971 272.957L513.338 302.961C513.686 307.486 516.957 311.245 521.343 312.289L531.646 314.726C536.797 315.909 540.417 320.434 540.417 325.725L540.765 389.979C540.835 395.687 545.638 400.421 551.416 400.282ZM373.9 399.934C374.457 401.117 375.223 402.161 376.128 403.066L393.601 419.634C397.639 423.394 400.284 428.475 401.119 433.905C402.512 442.746 408.916 449.986 417.548 452.283L435.439 457.087C443.445 459.245 451.868 459.175 459.874 456.878L483.682 449.986C490.295 448.107 497.326 447.619 504.079 448.663L526.773 452.144C533.108 453.119 538.816 448.176 538.816 441.772L538.12 325.655C538.051 321.339 535.127 317.65 530.95 316.675L496.282 308.391C493.985 307.834 491.896 306.372 490.713 304.284L464.886 260.009C463.911 258.338 462.241 257.155 460.361 256.807C458.482 256.459 456.532 256.946 455.001 258.129L451.45 260.914C448.666 263.072 444.837 263.351 441.705 261.61L435.161 257.851C429.8 254.788 423.674 252.839 417.479 252.352L381.21 249.358C379.191 249.219 377.172 249.706 375.501 250.75L373.274 252.143C368.749 254.997 362.901 254.301 359.142 250.472L353.851 245.112C352.738 243.928 351.276 243.093 349.744 242.675L345.289 241.422C335.612 238.707 326.841 233.416 319.88 226.246C317.374 223.67 312.779 224.158 311.387 227.43C309.368 232.024 309.229 237.245 310.969 241.979L313.545 249.01C314.38 251.377 314.171 253.883 312.918 256.041C312.361 256.946 311.735 257.712 310.969 258.338C309.02 259.87 306.653 261.053 305.191 263.002L291.199 281.172C288.553 284.652 288.623 289.525 291.477 292.867L310.203 314.795C314.45 319.808 320.715 322.662 327.328 322.592L335.056 322.523C340.973 322.453 346.681 324.541 351.136 328.37L361.37 337.142C365.338 340.622 366.452 346.331 364.085 350.995L362.692 353.64C361.996 354.963 361.787 356.425 361.927 357.887C363.806 372.506 367.844 386.637 373.9 399.934ZM259.246 386.498L228.755 380.79C223.743 379.885 218.591 380.929 214.275 383.783L126.143 442.677C123.498 444.487 121.758 447.41 121.549 450.613L119.878 472.75C119.46 478.528 125.865 482.357 130.738 479.224C134.497 476.788 139.37 476.788 143.129 479.224L144.522 480.129C146.749 481.521 149.464 481.939 151.97 481.313L222.072 463.004C224.647 462.308 226.945 460.776 228.546 458.618L230.495 455.973C232.305 453.536 234.95 451.727 237.874 450.891L254.373 446.227C258.828 444.974 261.891 440.936 261.961 436.342V435.715C262.03 432.652 263.353 429.728 265.581 427.64L270.941 422.628C273.586 420.191 274.561 416.432 273.447 413.021L267.182 393.529C266.138 389.909 263.005 387.194 259.246 386.498ZM224.16 74.9746L209.82 78.5249C207.94 79.0122 206.06 78.5945 204.529 77.4111L199.795 73.7912C198.124 72.5381 196.106 71.842 194.087 71.842H173.272C167.842 71.842 163.317 76.0188 162.83 81.4487L159.071 129.343C158.862 131.501 159.349 133.729 160.324 135.678L161.368 137.697C163.735 142.292 163.317 147.791 160.394 152.037L145.218 173.896C143.686 176.124 142.92 178.839 143.129 181.554L149.186 264.882C149.255 265.857 149.464 266.831 149.812 267.736L158.862 291.892C159.767 294.259 161.507 296.278 163.735 297.461L181.556 306.859C186.012 309.226 191.233 309.505 195.897 307.625L210.864 301.638C213.509 300.594 215.876 298.854 217.686 296.626L253.885 252.491C258.967 246.295 267.391 243.928 274.979 246.574L304.286 256.807C306.026 257.433 308.115 257.712 309.577 256.598C310.203 256.111 310.691 255.554 311.108 254.858C312.083 253.257 312.222 251.377 311.596 249.637L309.02 242.606C307.071 237.315 307.28 231.606 309.507 226.455L312.431 219.702C313.057 218.241 313.336 216.639 313.266 215.038L312.57 200.489C312.431 196.869 310.343 193.597 307.21 191.857L273.099 172.991C268.783 170.555 265.581 166.656 264.119 161.923L254.094 129.622C253.607 128.09 252.911 126.698 251.936 125.375L244.975 115.908C243.513 113.959 242.538 111.661 242.051 109.294L236.9 83.1195C235.786 77.2719 229.938 73.5127 224.16 74.9746ZM226.04 58.2672C225.135 56.9445 224.856 55.2738 225.274 53.8119L225.344 53.5334C226.109 50.6096 223.325 47.9643 220.401 48.8693C217.408 49.8439 215.11 52.2804 214.275 55.3434L209.054 76.2276C208.984 76.3669 209.124 76.5061 209.263 76.5061H209.332L227.432 72.0508C231.261 71.0762 233.628 67.2474 232.792 63.349C232.444 61.9567 231.261 60.9125 229.869 60.7037C228.337 60.4948 226.945 59.5899 226.04 58.2672ZM340.555 133.59C336.726 135.887 333.803 139.507 332.341 143.753L315.216 192.274C314.798 193.528 314.589 194.85 314.659 196.242L315.494 214.342C315.564 216.291 316.19 218.171 317.374 219.702C324.544 229.1 334.638 236.062 346.055 239.334L350.51 240.587C352.389 241.144 354.13 242.188 355.522 243.58L360.813 248.94C363.876 252.073 368.61 252.63 372.369 250.333L374.596 248.94C376.685 247.687 379.121 247.061 381.558 247.27L417.827 250.263C424.301 250.82 430.775 252.839 436.414 256.041L442.958 259.8C445.324 261.123 448.248 260.914 450.406 259.243L453.957 256.459C455.975 254.927 458.551 254.301 461.057 254.788C463.563 255.275 465.721 256.807 466.974 258.965L492.801 303.239C493.706 304.771 495.238 305.954 497.048 306.372L497.953 306.581C504.845 308.252 511.319 302.683 510.762 295.582L508.952 273.027C508.534 267.597 510.483 262.237 514.242 258.269L526.007 246.017C529.488 242.327 531.228 237.315 530.602 232.233L526.773 199.793C526.355 196.451 524.406 193.597 521.622 191.787C516.609 188.585 511.04 184.547 504.914 179.465C490.922 168.049 474.702 158.999 450.615 149.253C439.338 144.658 427.712 144.31 416.504 143.893C404.252 143.475 392.696 143.127 381.558 137.836C374.875 134.704 369.515 131.641 365.198 128.369C361.161 125.236 355.522 124.331 351.136 126.976L340.555 133.59ZM304.913 95.7892L299.97 96.1373H299.204C296.28 96.1373 293.426 95.0235 291.268 92.935L287.648 89.3847C282.566 84.3725 275.187 82.5625 268.365 84.5117L250.057 89.872C244.905 91.4035 241.703 96.6246 242.747 101.915L244.139 109.016C244.557 111.104 245.462 113.054 246.715 114.794L253.677 124.261C254.721 125.723 255.556 127.394 256.113 129.134L266.207 161.505C267.53 165.682 270.384 169.163 274.213 171.321L302.128 186.775C307.767 189.908 314.867 187.193 317.025 181.136L330.391 143.266C331.993 138.602 335.264 134.564 339.441 131.989L347.238 127.185C352.598 123.844 353.712 116.534 351.345 110.687C348.561 103.864 347.029 95.65 345.776 84.9294C345.289 81.2399 343.966 77.7592 341.808 74.8354C338.606 70.4497 333.872 67.4563 328.581 66.412L327.816 66.2728C321.342 65.0198 315.355 70.032 315.424 76.5757L315.494 84.4421C315.564 90.3593 310.899 95.3716 304.913 95.7892ZM238.222 79.2907C239.406 85.2775 245.462 89.0367 251.379 87.2963L267.739 82.5625C275.257 80.3349 283.471 82.4233 289.041 87.9228L292.661 91.4731C294.54 93.2831 297.116 94.2577 299.761 94.0489L304.704 93.7008C309.577 93.3527 313.406 89.2455 313.336 84.3725L313.266 71.9812C313.266 67.0386 309.716 62.7225 304.843 61.8175L302.476 61.3302C299.135 60.7037 296.489 58.128 295.724 54.8561C295.167 52.4892 293.357 50.6096 290.99 50.1223L281.244 47.6162C276.649 46.4328 271.776 48.5212 269.479 52.6981L269.409 52.7677C268.017 55.2042 265.511 56.8749 262.726 57.223L249.639 58.7545C247.899 58.9633 246.367 59.7987 245.253 61.1214L239.893 67.5259C237.874 69.9624 237.039 73.1646 237.665 76.2276L238.222 79.2907ZM175.778 65.3678C175.569 67.6651 177.449 69.6839 179.746 69.6839H194.087C196.593 69.6839 199.099 70.5193 201.048 72.0508L205.782 75.6707C206.269 76.158 206.965 75.7403 207.105 75.1138L212.187 54.7865C213.161 51.0273 216.015 48.0339 219.705 46.8505L223.882 45.5278C226.179 44.8317 228.128 42.2559 226.179 40.9333L223.812 39.4714C222.211 38.4968 220.262 38.1487 218.382 37.8702L209.263 37.5222C206.687 37.4526 204.181 38.2879 202.232 39.889L179.12 58.9633C177.24 60.5645 175.987 62.8617 175.778 65.3678ZM146.54 46.2936L149.046 48.3124C151.344 50.1223 152.04 53.3942 150.648 56.0395L148.698 59.7987C148.281 60.4252 148.211 61.2606 148.629 61.9567L150.021 64.6021C151.553 67.4563 154.546 69.3358 157.748 69.4751L162.76 69.7535H168.956C171.462 69.7535 173.551 67.8043 173.76 65.2982C174.038 62.2352 175.5 59.381 177.867 57.4318L194.156 43.9963C197.011 41.6294 195.41 37.1045 191.79 36.8956C187.474 36.7564 183.297 35.2945 179.816 32.7188L158.723 17.3341C157.539 16.4291 156.147 16.0114 154.755 16.0114C151.831 16.0114 148.629 17.9606 148.072 21.7197L145.009 42.4648C144.8 43.9267 145.427 45.3886 146.54 46.2936ZM41.6318 229.309C42.8849 231.258 43.7202 233.347 44.0683 235.644L49.5678 268.572C49.9159 270.938 50.1247 273.375 50.0551 275.812C50.0551 275.951 50.1247 276.09 50.264 276.16C50.3336 276.16 50.3336 276.229 50.4032 276.229L59.9403 281.729C65.5791 285.001 72.1228 285.906 78.4577 284.304L92.5894 280.684C97.0447 279.501 101.778 279.571 106.234 280.754L138.256 289.456C146.471 291.684 153.78 283.678 150.787 275.742L147.585 267.179C147.515 266.97 147.445 266.831 147.445 266.622L141.25 181.693C140.971 178.491 141.876 175.358 143.686 172.713L158.862 150.854C161.368 147.234 161.716 142.57 159.697 138.672L158.653 136.653C157.47 134.355 156.983 131.78 157.191 129.204L161.438 75.81C161.577 73.6519 159.976 71.7723 157.748 71.6331C153.78 71.4243 150.16 69.1966 148.281 65.7159L146.958 63.2794C146.68 62.7921 146.123 62.5833 145.566 62.7921L113.752 75.1138C112.36 75.6011 111.385 76.8542 111.176 78.3161L110.411 83.6067C110.132 85.4863 109.227 87.2963 107.835 88.619L98.2978 97.7384C96.627 99.2699 94.469 100.175 92.1717 100.175C91.754 100.175 91.4059 100.175 90.9883 100.105L88.8302 99.8268C88.4125 99.7572 87.9949 99.7572 87.5772 99.7572C84.5838 99.7572 81.7992 101.15 80.0588 103.516L72.7493 113.471C71.2178 115.56 70.6609 118.135 71.0786 120.641L75.3251 144.658C76.5781 151.341 75.2555 158.094 71.7051 163.663C67.6675 170.068 61.9591 176.681 56.0419 181.832C52.8397 184.617 48.1059 185.035 43.0241 185.452C34.74 186.148 26.1775 186.845 24.089 198.401C23.6714 200.698 24.994 203.274 28.057 208.077L41.6318 229.309ZM293.774 386.289L313.336 364.918C318.07 359.766 324.544 356.634 331.575 356.216L355.035 354.754C358.098 354.545 360.882 352.735 362.205 350.02C364.154 346.191 363.249 341.527 359.977 338.743L349.744 329.971C345.637 326.491 340.485 324.541 335.056 324.611L327.328 324.681H327.12C319.949 324.681 313.266 321.548 308.602 316.118L289.876 294.19C286.395 290.082 286.256 284.096 289.528 279.849L296.489 270.73C300.805 265.091 298.299 256.876 291.616 254.51L274.282 248.523C267.599 246.156 260.011 248.314 255.487 253.813L219.287 297.949C217.268 300.455 214.623 302.404 211.63 303.588L196.663 309.574C191.442 311.663 185.594 311.315 180.582 308.669L160.115 297.81C159.419 297.461 158.723 297.183 157.957 296.974L105.538 282.773C101.43 281.659 97.0447 281.659 92.9375 282.703L78.8058 286.323C71.914 288.064 64.8133 287.089 58.6873 283.539L56.0419 282.007C53.1181 280.336 49.4982 282.355 48.5932 285.557L43.581 305.606C42.8849 308.252 42.9545 311.036 43.8595 313.682L50.1944 332.617C51.169 335.54 52.8397 338.464 55.6939 339.787L98.6458 359.488C103.171 361.576 106.512 365.544 107.765 370.417L122.384 426.944C122.872 428.684 123.011 430.494 122.872 432.304C122.593 436.551 127.327 439.335 130.877 436.968L213.161 381.973C217.895 378.84 223.534 377.657 229.172 378.701L285.212 389.143C288.414 389.77 291.616 388.656 293.774 386.289ZM119.948 531.296L118.138 527.049C115.632 521.271 114.587 514.867 115.075 508.601L120.714 432.374C120.853 430.842 120.714 429.241 120.296 427.71L105.677 371.183C104.633 366.936 101.709 363.456 97.7408 361.646L55.9027 342.363C53.3966 341.249 50.5424 342.92 49.359 345.356L40.4484 363.595C38.708 367.145 38.4992 371.253 39.8218 374.942L46.644 393.668C47.4794 395.966 47.6882 398.472 47.2706 400.908L45.4606 410.933C44.5556 416.084 40.8661 420.191 35.9234 421.792L25.6902 424.995C23.9498 425.552 22.4183 426.596 21.3045 427.988L18.1022 431.886C15.5961 434.88 15.3177 439.196 17.3365 442.537L43.9291 486.742C46.0871 490.362 47.2009 494.609 46.9921 498.855L46.3656 514.031C46.296 516.259 47.3402 518.417 49.1501 519.74L54.3016 523.499C56.7381 525.309 58.1304 528.163 57.9215 531.156L57.8519 531.922C57.7823 534.219 58.7569 536.447 60.6365 537.77L65.7183 541.459C67.5979 542.851 70.104 543.13 72.1924 542.295L79.0146 539.58C81.0334 538.814 83.3307 538.744 85.3495 539.51L121.479 552.946C122.315 553.224 123.22 552.667 123.22 551.762L122.872 544.244C122.663 539.788 121.688 535.403 119.948 531.296ZM530.115 454.79L503.87 450.752C497.396 449.777 490.643 450.195 484.378 452.005L460.57 458.897C456.323 460.15 451.868 460.776 447.413 460.776C443.236 460.776 439.059 460.219 435.022 459.106L417.131 454.302C407.733 451.796 400.702 443.93 399.24 434.253C398.474 429.241 396.038 424.577 392.348 421.166L377.381 407.173C374.944 404.876 371.533 403.902 368.262 404.528L323.082 413.3C317.443 414.413 312.222 417.059 308.045 421.096L288.971 439.405C287.3 440.936 285.281 441.981 283.054 442.398L263.144 445.879L238.431 452.84C235.995 453.536 233.697 455.068 232.166 457.156L230.217 459.802C228.337 462.308 225.622 464.187 222.559 464.953L152.388 483.331C149.325 484.167 145.983 483.61 143.338 481.869L141.946 480.964C138.883 478.946 134.915 478.946 131.852 480.964L123.011 486.673C120.296 488.483 118.486 491.407 118.277 494.678L117.233 508.671C116.746 514.588 117.79 520.645 120.087 526.144L121.897 530.391C123.707 534.707 124.751 539.301 124.96 544.035L125.169 549.256C125.308 552.667 127.327 555.73 129.694 558.167C131.434 559.977 132.826 562.135 133.871 564.432L146.958 594.366C149.325 599.935 154.128 603.973 159.976 605.504L206.478 617.617C234.811 624.927 252.911 640.451 268.296 656.044C271.011 658.759 274.561 660.291 278.459 660.291C280.687 660.291 282.915 659.734 284.933 658.759L366.939 617.965C369.236 616.851 371.742 616.225 374.318 616.225C376.963 616.225 379.539 616.851 381.906 618.035L524.545 691.547C531.507 695.167 539.791 690.085 539.791 682.219L539.025 465.023C538.956 459.871 535.196 455.555 530.115 454.79ZM867.882 405.781C867.674 400.073 862.94 395.617 857.232 395.757L551.208 402.37C545.499 402.509 540.974 407.173 540.974 412.882L541.183 455.277L542.088 694.332C542.088 698.23 544.316 701.781 547.727 703.591L822.216 844.699C823.817 845.534 825.835 845.186 827.089 843.933C827.854 843.167 828.272 842.123 828.272 841.009L828.063 830.776C827.924 824.58 832.727 819.498 838.923 819.22L875.192 817.688C880.274 817.479 884.311 813.163 884.172 808.082L867.882 405.781Z" fill="#FCF4ED"/>
</svg>
