<svg xmlns="http://www.w3.org/2000/svg" width="72.81" height="72.71" viewBox="0 0 72.81 72.71">
  <g id="maharah_logo" data-name="maharah logo" transform="translate(-174.69 -2.77)">
    <path id="Path_94741" data-name="Path 94741" d="M247.5,13.72H199.56a5.16,5.16,0,1,1,0-10.32H247.5V13.73Z" fill="#eee55c"/>
    <path id="Path_94742" data-name="Path 94742" d="M197.55,54.92H174.79V44.59h22.76a5.16,5.16,0,1,1,0,10.32" fill="#eee55c"/>
    <path id="Path_94743" data-name="Path 94743" d="M247.5,75.47H236.02a5.16,5.16,0,1,1,0-10.32H247.5V75.48Z" fill="#5894cb"/>
    <path id="Path_94744" data-name="Path 94744" d="M212.62,34.27H174.69V23.94h37.93a5.16,5.16,0,1,1,0,10.32" fill="#5894cb"/>
    <path id="Path_94745" data-name="Path 94745" d="M222.42,49.76a5.79,5.79,0,1,1-5.79-5.79,5.774,5.774,0,0,1,5.79,5.79" fill="#5894cb"/>
    <path id="Path_94746" data-name="Path 94746" d="M217.26,75.47H174.69V65.14h42.57a5.16,5.16,0,1,1,0,10.32" fill="#4fb987"/>
    <path id="Path_94747" data-name="Path 94747" d="M242.33,54.92a5.47,5.47,0,0,1-3.69-1.48L228.31,43.11a5.154,5.154,0,0,1,0-7.27l10.33-10.33a5.141,5.141,0,0,1,7.27,7.27l-6.64,6.64,6.64,6.64a5.154,5.154,0,0,1,0,7.27,4.9,4.9,0,0,1-3.58,1.58" fill="#4fb987"/>
    <path id="Path_94748" data-name="Path 94748" d="M186.39,8.56a5.79,5.79,0,1,1-11.58,0,5.839,5.839,0,0,1,5.79-5.79,5.774,5.774,0,0,1,5.79,5.79" fill="#4fb987"/>
  </g>
</svg>
